<svg width="458" height="458" viewBox="0 0 458 458" fill="none" xmlns="http://www.w3.org/2000/svg">
<path d="M458 350.278H0V350.507H458V350.278Z" fill="#EBEBEB"/>
<path d="M67.483 358.999H48.0547V359.228H67.483V358.999Z" fill="#EBEBEB"/>
<path d="M234.598 356.516H156.766V356.745H234.598V356.516Z" fill="#EBEBEB"/>
<path d="M96.8931 367.508H61.9844V367.737H96.8931V367.508Z" fill="#EBEBEB"/>
<path d="M412.109 365.969H372.547V366.198H412.109V365.969Z" fill="#EBEBEB"/>
<path d="M369.55 365.969H358.586V366.198H369.55V365.969Z" fill="#EBEBEB"/>
<path d="M339.736 362.104H318.668V362.333H339.736V362.104Z" fill="#EBEBEB"/>
<path d="M308.078 362.104H263.707V362.333H308.078V362.104Z" fill="#EBEBEB"/>
<path d="M217.092 309.425H40.2212C38.8356 309.422 37.5076 308.87 36.5287 307.89C35.5498 306.909 35 305.58 35 304.194V55.5646C35.0121 54.1869 35.5672 52.8697 36.5448 51.8989C37.5224 50.9282 38.8435 50.3824 40.2212 50.38H217.092C218.479 50.38 219.809 50.9311 220.79 51.9119C221.771 52.8928 222.322 54.2232 222.322 55.6104V304.194C222.322 305.582 221.771 306.912 220.79 307.893C219.809 308.874 218.479 309.425 217.092 309.425V309.425ZM40.2212 50.5632C38.8963 50.5656 37.6266 51.0936 36.6906 52.0313C35.7547 52.969 35.229 54.2397 35.229 55.5646V304.194C35.229 305.519 35.7547 306.79 36.6906 307.728C37.6266 308.665 38.8963 309.193 40.2212 309.196H217.092C218.417 309.193 219.688 308.666 220.625 307.728C221.563 306.791 222.091 305.52 222.093 304.194V55.5646C222.091 54.2389 221.563 52.9682 220.625 52.0307C219.688 51.0933 218.417 50.5656 217.092 50.5632H40.2212Z" fill="#EBEBEB"/>
<path d="M415.231 309.425H238.351C236.965 309.422 235.636 308.871 234.656 307.89C233.675 306.91 233.124 305.581 233.121 304.194V55.5646C233.136 54.1861 233.693 52.8688 234.672 51.8984C235.651 50.9279 236.973 50.3823 238.351 50.38H415.231C416.607 50.3848 417.926 50.9317 418.902 51.9021C419.877 52.8726 420.431 54.1885 420.443 55.5646V304.194C420.443 305.578 419.895 306.906 418.918 307.886C417.941 308.867 416.615 309.42 415.231 309.425V309.425ZM238.351 50.5632C237.026 50.5656 235.755 51.0933 234.818 52.0307C233.88 52.9682 233.353 54.2389 233.35 55.5646V304.194C233.353 305.52 233.88 306.791 234.818 307.728C235.755 308.666 237.026 309.193 238.351 309.196H415.231C416.557 309.193 417.827 308.666 418.765 307.728C419.702 306.791 420.23 305.52 420.232 304.194V55.5646C420.23 54.2389 419.702 52.9682 418.765 52.0307C417.827 51.0933 416.557 50.5656 415.231 50.5632H238.351Z" fill="#EBEBEB"/>
<path d="M49.1149 350.278H80.0391L80.0391 221.141H49.1149L49.1149 350.278Z" fill="#E6E6E6"/>
<path d="M54.2534 350.278H49.1055V338.654H59.6486L54.2534 350.278Z" fill="#F0F0F0"/>
<path d="M253.908 350.278H284.832V221.141H253.908V350.278Z" fill="#E6E6E6"/>
<path d="M49.116 345.818H258.395V221.141L49.116 221.141L49.116 345.818Z" fill="#F0F0F0"/>
<path d="M53.1113 260.859H254.402V226.664L53.1113 226.664V260.859Z" fill="#E6E6E6"/>
<path d="M53.1113 231.327L254.402 231.327V226.673L53.1113 226.673V231.327Z" fill="#E0E0E0"/>
<path d="M253.248 350.278H258.396V338.654H247.844L253.248 350.278Z" fill="#F0F0F0"/>
<path d="M53.1113 300.576H254.402V266.382H53.1113V300.576Z" fill="#E6E6E6"/>
<path d="M53.1113 271.044H254.402V266.391H53.1113V271.044Z" fill="#E0E0E0"/>
<path d="M53.1113 340.285H254.402V306.091H53.1113V340.285Z" fill="#E6E6E6"/>
<path d="M53.1113 310.753H254.402V306.1H53.1113V310.753Z" fill="#E0E0E0"/>
<path d="M327.945 350.278H399.65L406.016 125.052H334.312L327.945 350.278Z" fill="#E6E6E6"/>
<path d="M325.758 350.278H397.462L403.828 125.052H332.124L325.758 350.278Z" fill="#F0F0F0"/>
<path d="M393.164 343.876L399.164 131.455H336.418L330.418 343.876H393.164Z" fill="#FAFAFA"/>
<path d="M74.3418 186.085L281.156 186.085V70.7427L74.3418 70.7427V186.085Z" fill="#F0F0F0"/>
<path d="M66.9028 186.085L277.684 186.085V70.7427L66.9028 70.7427V186.085Z" fill="#F5F5F5"/>
<path d="M267.242 176.486V80.324L77.3188 80.324V176.486H267.242Z" fill="white"/>
<path d="M76.8413 215.975C80.7772 215.975 83.9678 212.784 83.9678 208.848C83.9678 204.912 80.7772 201.722 76.8413 201.722C72.9055 201.722 69.7148 204.912 69.7148 208.848C69.7148 212.784 72.9055 215.975 76.8413 215.975Z" fill="#F0F0F0"/>
<path d="M95.2745 213.76C96.1786 209.929 93.8062 206.091 89.9756 205.187C86.145 204.283 82.3068 206.655 81.4026 210.486C80.4985 214.316 82.8709 218.155 86.7015 219.059C90.5321 219.963 94.3704 217.59 95.2745 213.76Z" fill="#E6E6E6"/>
<path d="M105.247 208.825C106.151 204.995 103.779 201.157 99.9482 200.253C96.1176 199.348 92.2794 201.721 91.3753 205.551C90.4712 209.382 92.8436 213.22 96.6742 214.124C100.505 215.028 104.343 212.656 105.247 208.825Z" fill="#F0F0F0"/>
<path d="M110.413 211.504C110.413 211.504 109.79 221.141 85.6812 221.141C61.5721 221.141 60.9492 211.504 60.9492 211.504H110.413Z" fill="#E6E6E6"/>
<path d="M229.002 391.645C327.089 391.645 406.605 387.003 406.605 381.276C406.605 375.549 327.089 370.907 229.002 370.907C130.914 370.907 51.3984 375.549 51.3984 381.276C51.3984 387.003 130.914 391.645 229.002 391.645Z" fill="#F5F5F5"/>
<path d="M345.568 381.276H250.011C248.431 381.284 246.866 380.97 245.411 380.355C243.955 379.739 242.64 378.834 241.546 377.695C240.451 376.555 239.599 375.205 239.042 373.727C238.485 372.248 238.234 370.672 238.305 369.093L248.967 93.9083C249.13 90.6494 250.529 87.5751 252.879 85.3116C255.229 83.0482 258.354 81.7657 261.617 81.7255H357.174C358.754 81.719 360.318 82.0333 361.773 82.6494C363.228 83.2655 364.542 84.1705 365.637 85.3096C366.731 86.4486 367.583 87.7981 368.141 89.2762C368.698 90.7542 368.95 92.3301 368.88 93.9083L358.218 369.093C358.055 372.352 356.656 375.426 354.306 377.69C351.956 379.953 348.831 381.236 345.568 381.276Z" fill="#263238"/>
<path d="M239.295 110.167H238.379L239.02 93.8167C239.212 89.73 240.961 85.8717 243.908 83.0339C246.854 80.196 250.776 78.5938 254.867 78.5562V79.4722C251.013 79.5099 247.319 81.0207 244.543 83.6946C241.767 86.3686 240.118 90.0032 239.936 93.8533L239.295 110.167Z" fill="#14B8A6"/>
<path d="M269.145 78.5195H261.359V79.4355H269.145V78.5195Z" fill="#14B8A6"/>
<path d="M338.818 381.276H243.261C241.681 381.284 240.116 380.97 238.661 380.355C237.205 379.739 235.89 378.834 234.796 377.695C233.701 376.555 232.849 375.205 232.292 373.727C231.735 372.248 231.484 370.672 231.555 369.093L242.217 93.9083C242.38 90.6494 243.779 87.5751 246.129 85.3116C248.479 83.0482 251.604 81.7657 254.867 81.7255H350.424C352.004 81.719 353.568 82.0333 355.023 82.6494C356.478 83.2655 357.792 84.1705 358.887 85.3096C359.981 86.4486 360.833 87.7981 361.391 89.2762C361.948 90.7542 362.2 92.3301 362.13 93.9083L351.468 369.093C351.305 372.352 349.906 375.426 347.556 377.69C345.206 379.953 342.081 381.236 338.818 381.276Z" fill="#14B8A6"/>
<path opacity="0.8" d="M341.858 349.619H242.673C241.79 349.625 240.914 349.451 240.1 349.108C239.286 348.764 238.55 348.259 237.937 347.622C237.324 346.986 236.848 346.231 236.536 345.404C236.224 344.577 236.084 343.696 236.124 342.813L245.375 104.067C245.464 102.242 246.247 100.52 247.563 99.2535C248.879 97.9867 250.629 97.2706 252.456 97.2517H351.631C352.515 97.2471 353.391 97.4223 354.205 97.7665C355.02 98.1108 355.755 98.617 356.368 99.2544C356.98 99.8918 357.457 100.647 357.769 101.474C358.08 102.302 358.221 103.184 358.181 104.067L348.929 342.813C348.841 344.635 348.059 346.355 346.745 347.62C345.43 348.885 343.682 349.6 341.858 349.619V349.619Z" fill="white"/>
<path opacity="0.4" d="M299.752 349.619H275.02L316.734 97.2517H341.466L299.752 349.619Z" fill="white"/>
<path opacity="0.4" d="M270.667 349.619H258.301L300.015 97.2517H312.381L270.667 349.619Z" fill="white"/>
<path d="M315.663 275.826H266.895C264.641 275.826 262.855 273.362 262.754 270.119L261.371 224.841C261.261 221.113 263.405 217.88 265.997 217.88H320.957C323.549 217.88 325.445 221.113 325.052 224.841L320.233 270.119C319.885 273.362 317.907 275.826 315.663 275.826Z" fill="#14B8A6"/>
<path d="M315.662 277.548H266.894C263.679 277.548 261.169 274.37 261.041 270.174L259.658 224.896C259.524 222.34 260.407 219.834 262.113 217.926C262.608 217.386 263.208 216.952 263.875 216.65C264.542 216.348 265.264 216.183 265.996 216.167H320.956C321.687 216.184 322.405 216.357 323.063 216.673C323.722 216.988 324.306 217.44 324.776 217.999C325.571 218.978 326.157 220.111 326.497 221.325C326.837 222.54 326.925 223.811 326.755 225.061L321.937 270.339C321.515 274.424 318.767 277.548 315.662 277.548ZM265.996 219.593C265.724 219.614 265.458 219.689 265.215 219.813C264.971 219.937 264.754 220.108 264.577 220.316C263.52 221.557 262.984 223.159 263.084 224.786L264.467 270.064C264.531 272.299 265.621 274.113 266.894 274.113H315.662C316.825 274.113 318.263 272.437 318.529 269.936L323.347 224.658C323.462 223.888 323.423 223.102 323.231 222.347C323.039 221.592 322.699 220.883 322.23 220.261C322.08 220.063 321.888 219.901 321.668 219.785C321.448 219.67 321.205 219.604 320.956 219.593H265.996Z" fill="#14B8A6"/>
<path d="M320.233 271.832H320.05C319.826 271.808 319.609 271.74 319.412 271.633C319.214 271.525 319.04 271.379 318.899 271.204C318.757 271.029 318.652 270.827 318.589 270.611C318.525 270.395 318.505 270.169 318.529 269.945L323.824 220.179C324.648 212.402 329.549 206.54 335.219 206.54H338.92C339.374 206.54 339.81 206.72 340.131 207.041C340.452 207.363 340.633 207.798 340.633 208.253C340.633 208.707 340.452 209.143 340.131 209.464C339.81 209.785 339.374 209.966 338.92 209.966H335.256C331.408 209.966 327.928 214.61 327.268 220.545L321.974 270.312C321.928 270.737 321.723 271.13 321.401 271.412C321.078 271.694 320.661 271.844 320.233 271.832V271.832Z" fill="#14B8A6"/>
<path d="M276.924 292.671C275.971 292.655 275.031 292.443 274.163 292.049C273.295 291.655 272.517 291.088 271.877 290.381C269.642 288.055 268.396 284.253 268.543 280.214C268.809 273.371 272.958 267.811 277.804 267.811C278.757 267.825 279.698 268.036 280.566 268.43C281.434 268.824 282.212 269.393 282.851 270.101C285.086 272.428 286.332 276.229 286.185 280.269C285.919 287.111 281.77 292.671 276.924 292.671ZM277.84 269.304C273.792 269.304 270.302 274.223 270.073 280.296C269.935 283.96 270.989 287.331 272.995 289.374C273.495 289.934 274.106 290.385 274.788 290.701C275.47 291.016 276.21 291.188 276.961 291.206C281.01 291.206 284.5 286.287 284.729 280.214C284.866 276.55 283.813 273.179 281.807 271.136C281.302 270.571 280.685 270.117 279.997 269.802C279.308 269.486 278.561 269.317 277.804 269.304H277.84Z" fill="#14B8A6"/>
<path d="M303.569 292.671C302.617 292.655 301.679 292.443 300.812 292.049C299.946 291.655 299.169 291.087 298.531 290.381C296.287 288.055 295.041 284.253 295.197 280.214C295.453 273.371 299.612 267.811 304.457 267.811C305.41 267.825 306.349 268.036 307.215 268.43C308.082 268.824 308.859 269.393 309.495 270.101C311.74 272.428 312.985 276.229 312.83 280.269C312.573 287.111 308.415 292.671 303.569 292.671ZM304.485 269.304C300.427 269.304 296.946 274.223 296.717 280.296C296.58 283.96 297.633 287.331 299.63 289.374C300.131 289.934 300.741 290.385 301.423 290.701C302.106 291.016 302.845 291.188 303.596 291.206C307.654 291.206 311.135 286.287 311.364 280.214C311.501 276.55 310.448 273.179 308.451 271.136C307.947 270.572 307.333 270.119 306.645 269.804C305.958 269.488 305.213 269.318 304.457 269.304H304.485Z" fill="#14B8A6"/>
<path d="M314.707 173.356C315.862 157.402 307.885 143.823 296.89 143.027C285.896 142.231 276.047 154.52 274.892 170.474C273.737 186.429 281.714 200.008 292.708 200.804C303.703 201.6 313.552 189.311 314.707 173.356Z" fill="#14B8A6"/>
<path d="M293.713 202.573C291.373 202.534 289.066 202.013 286.936 201.044C284.805 200.075 282.897 198.678 281.329 196.94C275.833 191.206 272.737 181.826 273.085 171.869C273.726 155.006 283.949 141.293 295.875 141.293C298.215 141.33 300.522 141.848 302.653 142.816C304.784 143.783 306.692 145.18 308.26 146.917C313.756 152.661 316.861 162.031 316.504 171.997C315.862 188.852 305.64 202.573 293.713 202.573ZM295.866 144.728C285.79 144.728 277.07 156.966 276.502 172.007C276.154 181.057 278.874 189.493 283.766 194.577C285.017 195.977 286.542 197.106 288.247 197.893C289.951 198.681 291.799 199.111 293.677 199.157C303.753 199.157 312.473 186.919 313.041 171.878C313.389 162.828 310.678 154.392 305.786 149.308C304.534 147.907 303.007 146.777 301.301 145.99C299.595 145.202 297.745 144.772 295.866 144.728Z" fill="white"/>
<path d="M281.211 171.292C281.211 171.292 288.814 178.62 291.892 188.036C294.548 180.708 298.514 170.44 307.958 158.944C296.536 166.529 292.185 176.046 292.185 176.046C289.002 173.535 285.22 171.896 281.211 171.292V171.292Z" fill="white"/>
<path d="M291.387 372.748C290.579 372.741 289.781 372.568 289.043 372.239C288.306 371.909 287.644 371.431 287.1 370.833C286.231 369.861 285.566 368.725 285.143 367.492C284.72 366.258 284.547 364.953 284.636 363.652C284.837 358.651 288.162 354.584 292.055 354.584C292.864 354.593 293.662 354.768 294.399 355.099C295.137 355.43 295.798 355.91 296.342 356.507C297.206 357.475 297.868 358.606 298.29 359.832C298.711 361.059 298.884 362.358 298.797 363.652C298.614 368.681 295.28 372.748 291.387 372.748ZM292.055 355.555C288.675 355.555 285.781 359.219 285.643 363.689C285.559 364.858 285.709 366.033 286.085 367.143C286.461 368.254 287.055 369.278 287.833 370.156C288.287 370.659 288.841 371.062 289.459 371.341C290.077 371.62 290.746 371.769 291.423 371.777C294.803 371.777 297.698 368.113 297.835 363.652C297.92 362.481 297.77 361.305 297.394 360.193C297.018 359.081 296.424 358.055 295.646 357.176C295.192 356.673 294.638 356.269 294.02 355.99C293.402 355.711 292.733 355.563 292.055 355.555V355.555Z" fill="white"/>
<path d="M302.223 93.0839C301.849 93.0743 301.48 92.9881 301.139 92.8305C300.799 92.673 300.495 92.4475 300.245 92.1679C299.86 91.7377 299.566 91.2348 299.378 90.6889C299.191 90.143 299.115 89.5651 299.155 88.9894C299.237 86.7727 300.739 84.9681 302.498 84.9681C302.873 84.9778 303.242 85.064 303.582 85.2215C303.922 85.379 304.227 85.6045 304.477 85.8841C304.863 86.3134 305.16 86.8159 305.349 87.3619C305.538 87.9079 305.615 88.4862 305.576 89.0627C305.493 91.2794 303.982 93.0839 302.223 93.0839ZM302.498 85.9757C301.252 85.9757 300.181 87.3589 300.117 89.0627C300.057 89.9604 300.353 90.8455 300.941 91.5267C301.103 91.7076 301.3 91.8531 301.521 91.954C301.742 92.0549 301.981 92.109 302.223 92.1129C303.469 92.1129 304.541 90.7298 304.605 89.026C304.669 88.1249 304.372 87.2353 303.781 86.5528C303.618 86.374 303.42 86.2305 303.199 86.1313C302.979 86.032 302.74 85.9791 302.498 85.9757V85.9757Z" fill="white"/>
<path d="M172.849 113.813C162.361 112.412 156.691 118.769 159.677 130.301C162.489 141.165 157.048 139.717 156.013 150.004C154.978 160.291 163.46 160.712 166.217 169.112C168.974 177.512 184.207 187.056 190.161 182.751C196.115 178.446 207.932 179.435 209.013 165.219C210.093 151.003 198.845 150.233 202.701 142.465C207.721 132.389 196.601 134.844 196.601 122.002C196.628 111.66 181.633 100.458 172.849 113.813Z" fill="#263238"/>
<path d="M159.646 168.544C159.417 172.932 159.014 177.173 158.373 181.487C157.812 185.947 156.834 190.345 155.451 194.623C155.022 195.871 154.476 197.076 153.82 198.222C153.372 199.001 152.82 199.716 152.181 200.348L151.86 200.641L151.686 200.778L151.585 200.861L151.201 201.126L150.44 201.657C148.503 202.9 146.466 203.979 144.349 204.882C140.338 206.642 136.17 208.022 131.901 209.004L130.426 204.946C134.044 202.94 137.754 200.888 141.143 198.763C142.798 197.751 144.389 196.638 145.906 195.429L146.401 194.998L146.657 194.787V194.742C146.657 194.742 146.758 194.568 146.886 194.302C147.212 193.575 147.485 192.825 147.702 192.058C148.222 190.193 148.631 188.3 148.929 186.388C149.277 184.409 149.561 182.385 149.799 180.342C150.266 176.275 150.669 172.098 150.981 168.04L159.646 168.544Z" fill="#FFB573"/>
<path d="M133.119 205.037L126.121 202.876L127.431 211.34C127.431 211.34 132.011 210.772 134.219 208.216L133.119 205.037Z" fill="#FFB573"/>
<path d="M120.408 208.326L120.793 209.434C121.015 210.063 121.433 210.604 121.985 210.977C122.538 211.349 123.196 211.534 123.862 211.504L127.434 211.34L126.124 202.876L122.195 204.415C121.45 204.71 120.848 205.282 120.515 206.011C120.182 206.74 120.144 207.569 120.408 208.326V208.326Z" fill="#FFB573"/>
<path d="M167.92 160.364C167.92 163.011 166.638 168.223 165.548 172.144C164.742 174.965 164.064 177.109 164.064 177.109L162.461 176.706L149.225 173.353C149.014 166.556 149.28 159.082 156.04 154.612C160.299 151.809 167.884 155.656 167.92 160.364Z" fill="#14B8A6"/>
<g opacity="0.5">
<path opacity="0.5" d="M167.92 160.364C167.92 163.011 166.638 168.223 165.548 172.144C164.742 174.965 164.064 177.109 164.064 177.109L162.461 176.706L149.225 173.353C149.014 166.556 149.28 159.082 156.04 154.612C160.299 151.809 167.884 155.656 167.92 160.364Z" fill="black"/>
</g>
<path opacity="0.3" d="M167.903 160.822C167.041 159.906 165.081 159.75 160.813 161.106C154.694 163.039 152.981 169.744 152.898 174.287L162.461 176.706L163.286 176.916L164.064 177.109C164.064 177.109 164.403 176.037 164.88 174.406C165.072 173.738 165.31 172.968 165.539 172.144C166.583 168.443 167.793 163.57 167.903 160.822Z" fill="black"/>
<path d="M140.751 373.059L132.672 370.229L137.747 352.733L145.816 355.573L140.751 373.059Z" fill="#FFB573"/>
<path d="M248.672 352.33L242.104 357.222L228.648 343.582L235.216 338.682L248.672 352.33Z" fill="#FFB573"/>
<path d="M239.414 355.234L246.513 349.362C246.632 349.257 246.785 349.2 246.943 349.2C247.102 349.2 247.255 349.257 247.374 349.362L252.824 354.309C252.958 354.437 253.062 354.593 253.131 354.765C253.2 354.937 253.232 355.122 253.224 355.307C253.216 355.493 253.169 355.674 253.086 355.84C253.003 356.006 252.885 356.152 252.742 356.269C250.232 358.275 248.913 359.118 245.798 361.692C243.875 363.276 239.863 367.069 237.206 369.258C234.55 371.447 232.241 368.946 233.157 367.792C237.224 362.644 238.168 359.255 238.653 356.471C238.754 355.982 239.023 355.544 239.414 355.234V355.234Z" fill="#263238"/>
<path d="M132.122 367.71L141.099 371.456C141.258 371.527 141.39 371.648 141.476 371.799C141.561 371.951 141.596 372.126 141.575 372.299L140.558 380.213C140.536 380.4 140.47 380.58 140.365 380.737C140.261 380.894 140.121 381.024 139.957 381.118C139.794 381.211 139.61 381.265 139.422 381.275C139.234 381.285 139.046 381.251 138.873 381.175C135.695 379.884 134.201 379.242 130.263 377.594L118.162 372.556C114.883 371.182 115.588 367.582 117.072 367.847C123.713 369.047 127.991 368.653 130.611 367.664C131.101 367.482 131.644 367.498 132.122 367.71V367.71Z" fill="#263238"/>
<path opacity="0.2" d="M137.747 352.742L135.137 361.756L142.996 365.31L145.826 355.573L137.747 352.742Z" fill="black"/>
<path opacity="0.2" d="M235.225 338.682L228.648 343.582L235.583 350.617L242.159 345.717L235.225 338.682Z" fill="black"/>
<path d="M192.763 203.141L159.485 203.618C154.905 177.86 153.852 165.558 153.852 159.65C153.847 158.176 154.356 156.746 155.29 155.607C156.224 154.467 157.526 153.688 158.972 153.403C161.006 153.009 163.552 152.551 166.071 152.203C166.941 152.084 167.821 151.974 168.682 151.882C173.705 151.446 178.753 151.373 183.786 151.662C184.538 151.662 185.28 151.726 186.022 151.772C189.392 151.992 192.562 152.422 194.788 152.771C195.198 152.836 195.59 152.984 195.941 153.206C196.292 153.429 196.594 153.72 196.828 154.063C197.062 154.406 197.224 154.794 197.303 155.201C197.382 155.609 197.377 156.029 197.288 156.435C196.317 161.015 195.52 165.036 194.879 168.636C193.862 174.361 193.221 178.986 192.846 183.044C192.282 189.73 192.254 196.451 192.763 203.141V203.141Z" fill="#14B8A6"/>
<g opacity="0.5">
<path opacity="0.5" d="M192.763 203.141L159.485 203.618C154.905 177.86 153.852 165.558 153.852 159.65C153.847 158.176 154.356 156.746 155.29 155.607C156.224 154.467 157.526 153.688 158.972 153.403C161.006 153.009 163.552 152.551 166.071 152.203C166.941 152.084 167.821 151.974 168.682 151.882C173.705 151.446 178.753 151.373 183.786 151.662C184.538 151.662 185.28 151.726 186.022 151.772C189.392 151.992 192.562 152.422 194.788 152.771C195.198 152.836 195.59 152.984 195.941 153.206C196.292 153.429 196.594 153.72 196.828 154.063C197.062 154.406 197.224 154.794 197.303 155.201C197.382 155.609 197.377 156.029 197.288 156.435C196.317 161.015 195.52 165.036 194.879 168.636C193.862 174.361 193.221 178.986 192.846 183.044C192.282 189.73 192.254 196.451 192.763 203.141V203.141Z" fill="black"/>
</g>
<path opacity="0.3" d="M192.843 183.072C191.166 178.052 191.258 167.628 193.062 164.248L194.894 168.663C193.859 174.388 193.218 179.014 192.843 183.072Z" fill="black"/>
<path d="M181.301 141.375C181.145 145.461 181.631 149.702 183.793 151.699C183.793 151.699 180.22 156.361 171.811 160.941C167.36 156.654 168.679 151.919 168.679 151.919C174.083 150.545 174.175 146.945 172.59 140.972L176.877 139.232C177.271 138.885 177.759 138.662 178.279 138.591C178.799 138.52 179.329 138.604 179.802 138.833C180.274 139.062 180.669 139.425 180.936 139.878C181.202 140.33 181.33 140.851 181.301 141.375Z" fill="#FFB573"/>
<path opacity="0.2" d="M176.886 139.232C177.255 138.91 177.706 138.696 178.188 138.613C178.671 138.53 179.167 138.582 179.623 138.763C180.078 138.943 180.474 139.246 180.769 139.638C181.063 140.029 181.244 140.494 181.292 140.982C179.401 143.898 176.638 146.142 173.396 147.394C173.531 145.207 173.258 143.014 172.59 140.927L176.886 139.232Z" fill="black"/>
<path d="M189.042 129.376C186.147 136.979 185.076 140.249 179.882 143.006C172.123 147.146 163.394 141.925 163.998 133.608C164.511 126.124 169.165 114.958 177.738 114.244C179.624 114.075 181.522 114.391 183.251 115.163C184.98 115.935 186.482 117.137 187.615 118.654C188.748 120.171 189.474 121.952 189.724 123.829C189.974 125.706 189.739 127.615 189.042 129.376V129.376Z" fill="#FFB573"/>
<path d="M174.488 114.207C169.093 121.819 184.564 119.95 183.795 125.318C183.346 128.579 178.693 134.652 186.864 135.788C195.034 136.924 197.059 123.587 192.854 118.576C188.65 113.566 179.792 110.314 174.488 114.207Z" fill="#263238"/>
<path d="M176.198 113.978C175.081 116.726 169.136 120.491 166.965 119.795C167.624 116.506 173.166 113.383 176.198 113.978Z" fill="#263238"/>
<path d="M188.546 137.134C187.727 138.477 186.41 139.442 184.882 139.818C182.849 140.295 181.924 138.463 182.556 136.585C183.124 134.908 184.873 132.628 186.87 132.985C187.307 133.069 187.716 133.261 188.059 133.544C188.403 133.827 188.67 134.191 188.837 134.604C189.003 135.016 189.064 135.464 189.013 135.906C188.963 136.348 188.802 136.77 188.546 137.134V137.134Z" fill="#FFB573"/>
<path d="M159.484 203.618C159.484 203.618 153.851 252.056 148.657 282.21C144.59 305.834 134.312 355.023 134.312 355.023L147.649 359.75C147.649 359.75 162.928 308.454 165.603 286.58C176.375 255.014 184.115 203.352 184.115 203.352L159.484 203.618Z" fill="#14B8A6"/>
<path d="M132.141 358.348L147.584 363.789L149.645 358.834L132.901 352.431L132.141 358.348Z" fill="#263238"/>
<path opacity="0.3" d="M176.346 218.008L171.363 227.562C169.531 234.762 169.97 252.294 172.279 263.368C176.428 246.67 179.744 229.101 181.805 217.312L176.346 218.008Z" fill="black"/>
<path d="M166.711 203.618C166.711 203.618 172.674 257.827 183.804 287.89C189.382 302.995 230.794 347.741 230.794 347.741L240.138 340.267C240.138 340.267 213.876 295.117 202.398 283.319C197.718 257.094 203.598 217.825 192.725 203.123L166.711 203.618Z" fill="#14B8A6"/>
<path d="M231.589 350.984L242.544 341.998L239.586 337.143L227.586 347.585L231.589 350.984Z" fill="#263238"/>
<path d="M193.274 201.19L194.813 204.14C194.932 204.369 194.667 204.616 194.282 204.616L159.373 205.12C159.071 205.12 158.823 204.973 158.796 204.79L158.457 201.813C158.457 201.612 158.695 201.428 159.016 201.428L192.725 200.943C192.83 200.933 192.936 200.951 193.032 200.994C193.128 201.038 193.212 201.105 193.274 201.19V201.19Z" fill="#263238"/>
<path d="M188.76 205.019H189.676C189.85 205.019 189.987 204.918 189.978 204.808L189.492 200.943C189.492 200.824 189.328 200.741 189.144 200.741H188.228C188.054 200.741 187.917 200.842 187.935 200.952L188.412 204.818C188.421 204.928 188.586 205.019 188.76 205.019Z" fill="#14B8A6"/>
<path d="M161.874 205.404H162.79C162.973 205.404 163.102 205.303 163.093 205.193L162.616 201.328C162.616 201.209 162.442 201.117 162.259 201.126H161.343C161.16 201.126 161.022 201.227 161.041 201.337L161.517 205.202C161.535 205.312 161.7 205.404 161.874 205.404Z" fill="#14B8A6"/>
<path d="M175.321 205.184H176.237C176.42 205.184 176.558 205.083 176.539 204.973L176.063 201.108C176.063 200.989 175.889 200.897 175.715 200.906H174.799C174.616 200.906 174.487 201.007 174.497 201.117L174.973 204.983C174.955 205.12 175.138 205.184 175.321 205.184Z" fill="#14B8A6"/>
<path d="M175.669 127.516C175.477 128.148 174.982 128.551 174.57 128.432C174.158 128.313 173.984 127.69 174.176 127.058C174.368 126.426 174.872 126.014 175.284 126.142C175.696 126.271 175.87 126.884 175.669 127.516Z" fill="#263238"/>
<path d="M168.542 125.281C168.34 125.913 167.846 126.316 167.434 126.197C167.021 126.078 166.847 125.455 167.049 124.823C167.25 124.191 167.736 123.788 168.148 123.907C168.56 124.026 168.734 124.649 168.542 125.281Z" fill="#263238"/>
<path d="M168.323 123.999L166.949 123.083C166.949 123.083 167.352 124.512 168.323 123.999Z" fill="#263238"/>
<path d="M170.301 126.948C169.291 128.214 168.11 129.333 166.793 130.274C167.043 130.603 167.362 130.874 167.728 131.069C168.093 131.263 168.496 131.376 168.909 131.4L170.301 126.948Z" fill="#ED893E"/>
<path d="M171.017 134.899C170.985 134.876 170.961 134.843 170.949 134.805C170.938 134.767 170.939 134.726 170.952 134.689C170.969 134.64 171.004 134.599 171.05 134.575C171.096 134.551 171.15 134.546 171.2 134.56C171.978 134.825 172.808 134.901 173.621 134.783C174.435 134.665 175.209 134.357 175.881 133.883C175.9 133.866 175.923 133.854 175.948 133.847C175.972 133.839 175.998 133.837 176.024 133.839C176.049 133.842 176.074 133.85 176.097 133.862C176.119 133.874 176.139 133.89 176.155 133.91C176.172 133.93 176.184 133.953 176.191 133.977C176.199 134.002 176.201 134.028 176.199 134.053C176.196 134.079 176.188 134.103 176.176 134.126C176.164 134.149 176.148 134.169 176.128 134.185C175.408 134.704 174.574 135.043 173.696 135.174C172.817 135.304 171.921 135.223 171.081 134.936L171.017 134.899Z" fill="#263238"/>
<path d="M178.408 125.813C178.355 125.768 178.314 125.712 178.289 125.648C178.139 125.185 177.882 124.764 177.538 124.42C177.194 124.076 176.773 123.818 176.31 123.669C176.21 123.645 176.123 123.583 176.068 123.495C176.013 123.408 175.995 123.303 176.017 123.202C176.041 123.102 176.103 123.015 176.191 122.96C176.278 122.905 176.383 122.887 176.484 122.909C177.074 123.089 177.611 123.407 178.053 123.838C178.494 124.268 178.826 124.797 179.021 125.382C179.057 125.479 179.053 125.587 179.01 125.681C178.967 125.775 178.889 125.849 178.792 125.886C178.727 125.907 178.658 125.911 178.591 125.898C178.524 125.885 178.461 125.856 178.408 125.813V125.813Z" fill="#263238"/>
<path d="M166.417 121.187C166.417 121.187 166.417 121.141 166.417 121.123C166.407 121.073 166.408 121.021 166.419 120.972C166.429 120.922 166.45 120.875 166.479 120.833C166.508 120.792 166.545 120.756 166.587 120.729C166.63 120.701 166.678 120.683 166.728 120.674C167.332 120.551 167.957 120.575 168.55 120.744C169.143 120.913 169.687 121.222 170.136 121.645C170.172 121.681 170.201 121.723 170.221 121.771C170.241 121.818 170.251 121.868 170.251 121.92C170.251 121.971 170.241 122.021 170.221 122.069C170.201 122.116 170.172 122.159 170.136 122.194C170.062 122.266 169.963 122.306 169.861 122.306C169.758 122.306 169.659 122.266 169.586 122.194C169.221 121.859 168.781 121.616 168.303 121.487C167.824 121.357 167.322 121.346 166.838 121.452C166.748 121.465 166.656 121.446 166.578 121.397C166.501 121.348 166.444 121.274 166.417 121.187Z" fill="#263238"/>
<path d="M134.814 157.369C133.459 155.18 132.286 150.902 134.604 148.484C136.921 146.065 138.726 145.378 138.149 141.156C137.571 136.933 144.02 137.052 144.561 133.828C147.776 136.576 151.183 142.988 149.36 145.928C147.538 148.868 148.518 151.076 148.124 154.639C147.73 158.202 139.944 165.668 134.814 157.369Z" fill="#14B8A6"/>
<path opacity="0.5" d="M134.814 157.369C133.459 155.18 132.286 150.902 134.604 148.484C136.921 146.065 138.726 145.378 138.149 141.156C137.571 136.933 144.02 137.052 144.561 133.828C147.776 136.576 151.183 142.988 149.36 145.928C147.538 148.868 148.518 151.076 148.124 154.639C147.73 158.202 139.944 165.668 134.814 157.369Z" fill="white"/>
<path d="M144.826 140.615C143.269 150.398 140.402 161.821 136.289 170.312C137.289 170.23 138.228 169.795 138.936 169.084C138.936 169.084 145.449 151.396 144.826 140.615Z" fill="#14B8A6"/>
<path d="M131.728 162.178C129.667 160.639 127.01 157.094 128.265 153.989C129.52 150.884 130.958 149.583 128.861 145.864C126.763 142.145 132.818 139.873 132.131 136.704C136.152 138.114 141.675 142.814 141.043 146.184C140.411 149.555 142.152 151.287 143.095 154.74C144.039 158.193 139.559 168.004 131.728 162.178Z" fill="#14B8A6"/>
<path opacity="0.6" d="M131.728 162.178C129.667 160.639 127.01 157.094 128.265 153.989C129.52 150.884 130.958 149.583 128.861 145.864C126.763 142.145 132.818 139.873 132.131 136.704C136.152 138.114 141.675 142.814 141.043 146.184C140.411 149.555 142.152 151.287 143.095 154.74C144.039 158.193 139.559 168.004 131.728 162.178Z" fill="white"/>
<path d="M146.45 165.127C148.612 164.972 152.12 163.662 152.642 160.877C153.164 158.092 152.734 156.517 155.921 154.822C159.109 153.128 155.83 148.768 157.753 146.826C154.254 146.001 148.19 146.826 147.091 149.519C145.992 152.212 143.986 152.633 141.742 154.667C139.497 156.7 138.224 165.714 146.45 165.127Z" fill="#14B8A6"/>
<path opacity="0.7" d="M146.45 165.127C148.612 164.972 152.12 163.662 152.642 160.877C153.164 158.092 152.734 156.517 155.921 154.822C159.109 153.128 155.83 148.768 157.753 146.826C154.254 146.001 148.19 146.826 147.091 149.519C145.992 152.212 143.986 152.633 141.742 154.667C139.497 156.7 138.224 165.714 146.45 165.127Z" fill="white"/>
<path d="M134.402 146.917C136.042 155.482 136.83 165.677 135.318 173.628C136.295 173.433 137.166 172.885 137.764 172.089C137.764 172.089 138.726 155.922 134.402 146.917Z" fill="#14B8A6"/>
<path d="M151.524 151.598C145.79 157.882 139.662 165.915 136.172 173.225C135.693 172.508 135.482 171.645 135.577 170.788C135.577 170.788 143.958 156.947 151.524 151.598Z" fill="#14B8A6"/>
<path d="M125.656 160.19C123.063 158.77 117.943 162.737 120.636 167.344C123.329 171.952 128.88 174.086 131.445 171.613C134.981 170.981 136.519 165.265 134.394 160.373C132.269 155.482 126.05 157.259 125.656 160.19Z" fill="#14B8A6"/>
<path d="M125.654 160.19C125.654 160.19 124.738 157.213 126.249 156.26C126.454 156.518 126.644 156.787 126.817 157.067C126.817 157.067 125.791 157.35 125.654 160.19Z" fill="#263238"/>
<path d="M154.957 152.422C154.646 158.715 148.179 163.497 141.153 165.036C140.721 165.48 140.406 166.024 140.237 166.62C140.178 166.757 140.168 166.91 140.208 167.053C140.248 167.197 140.336 167.322 140.457 167.408C140.989 167.85 141.616 168.163 142.289 168.324C146 168.414 149.618 167.158 152.475 164.788C156.139 161.985 159.482 156.435 158.429 153.861C157.375 151.287 156.542 152.148 156.139 150.197C155.915 149.405 155.819 148.582 155.855 147.76C155.855 147.76 154.939 148.191 154.71 148.749C155.012 149.537 155.058 150.371 154.957 152.422Z" fill="#14B8A6"/>
<path opacity="0.2" d="M158.468 153.888C158.228 153.197 157.834 152.57 157.314 152.056C157.387 154.126 156.856 156.636 154.566 160.3C152.175 164.129 145.763 167.536 140.23 167.198C140.275 167.286 140.341 167.362 140.423 167.417C140.955 167.859 141.582 168.172 142.255 168.333C145.966 168.424 149.584 167.168 152.441 164.798C156.114 162.022 159.485 156.471 158.468 153.888Z" fill="black"/>
<path d="M154.976 150.041C154.842 149.569 154.683 149.104 154.5 148.648C154.876 148.162 155.385 147.796 155.966 147.595V149.106C155.966 149.106 155.462 149.977 154.976 150.041Z" fill="#263238"/>
<path d="M140.459 165.998C140.319 166.152 140.187 166.314 140.065 166.483C140.003 166.665 139.999 166.862 140.055 167.046C140.111 167.23 140.224 167.392 140.377 167.509C140.434 167.568 140.502 167.616 140.577 167.649C140.653 167.682 140.734 167.7 140.816 167.701C140.637 167.42 140.507 167.11 140.432 166.785C140.425 166.522 140.434 166.259 140.459 165.998Z" fill="#263238"/>
<path d="M159.997 155.262C158.375 161.344 151.056 164.669 143.857 164.706C143.331 165.041 142.899 165.504 142.602 166.052C142.508 166.169 142.457 166.315 142.457 166.465C142.457 166.615 142.508 166.76 142.602 166.877C143.035 167.441 143.597 167.893 144.241 168.196C144.974 168.388 149.307 169.588 154.94 166.877C159.071 164.88 163.532 160.163 163.047 157.433C162.561 154.703 161.554 155.363 161.572 153.384C161.51 152.565 161.588 151.741 161.801 150.948C161.3 151.057 160.84 151.305 160.473 151.662C160.647 152.441 160.519 153.274 159.997 155.262Z" fill="#14B8A6"/>
<path opacity="0.2" d="M163.09 157.433C163.002 156.701 162.748 156 162.348 155.381C161.982 157.424 160.938 159.796 157.961 162.865C154.828 166.107 147.885 168.113 142.508 166.62C142.533 166.716 142.58 166.803 142.645 166.877C143.082 167.438 143.643 167.889 144.285 168.196C145.018 168.388 149.35 169.579 154.984 166.868C159.115 164.88 163.576 160.163 163.09 157.433Z" fill="black"/>
<path d="M160.51 152.972C160.51 152.972 160.428 151.9 160.336 151.516C160.806 151.123 161.378 150.872 161.985 150.792L161.655 152.267C161.655 152.267 160.995 152.972 160.51 152.972Z" fill="#263238"/>
<path d="M142.977 165.503C142.977 165.503 142.656 165.741 142.491 165.897C142.394 166.061 142.35 166.252 142.367 166.443C142.383 166.633 142.459 166.814 142.583 166.959C142.803 167.234 142.977 167.243 142.977 167.243C142.859 166.933 142.794 166.604 142.785 166.272C142.84 165.961 142.977 165.503 142.977 165.503Z" fill="#263238"/>
<path d="M164.247 162.082L119.535 168.223L126.409 218.27L171.12 212.13L164.247 162.082Z" fill="#14B8A6"/>
<path opacity="0.8" d="M164.247 162.082L119.535 168.223L126.409 218.27L171.12 212.13L164.247 162.082Z" fill="white"/>
<path opacity="0.2" d="M164.249 162.086L151.055 163.898L157.928 213.945L171.123 212.133L164.249 162.086Z" fill="#14B8A6"/>
<path opacity="0.2" d="M171.135 212.127L163.871 208.225L157.66 162.993L164.255 162.086L171.135 212.127Z" fill="#14B8A6"/>
<path opacity="0.3" d="M163.869 208.225L157.934 213.941L171.133 212.127L163.869 208.225Z" fill="#14B8A6"/>
<path d="M178.342 205.111L171.527 202.436L172.196 210.973C172.196 210.973 176.776 210.753 179.203 208.363L178.342 205.111Z" fill="#FFB573"/>
<path d="M199.844 162.563C201.676 167.692 203.251 172.785 204.607 178.061C205.285 180.69 205.926 183.337 206.439 186.085C206.686 187.45 206.906 188.833 207.071 190.281C207.253 191.8 207.317 193.331 207.263 194.861C207.232 195.853 207.078 196.837 206.805 197.792C206.433 198.967 205.808 200.045 204.973 200.952C203.752 202.256 202.302 203.324 200.696 204.103C198.069 205.381 195.302 206.349 192.452 206.989C187.119 208.226 181.681 208.953 176.211 209.159L175.68 204.873C178.171 204.277 180.727 203.618 183.209 202.922C185.692 202.225 188.165 201.456 190.537 200.586C192.801 199.811 194.983 198.814 197.05 197.609C197.802 197.169 198.474 196.605 199.038 195.942C199.184 195.713 199.184 195.648 199.157 195.648C199.18 195.313 199.18 194.976 199.157 194.641C199.116 193.535 198.999 192.433 198.809 191.343C198.625 190.152 198.378 188.934 198.103 187.679C197.526 185.234 196.894 182.742 196.18 180.251C194.751 175.304 193.148 170.275 191.536 165.393L199.844 162.563Z" fill="#FFB573"/>
<path d="M165.206 206.65L165.738 208.628C165.907 209.257 166.275 209.814 166.787 210.217C167.298 210.619 167.926 210.846 168.577 210.863L172.241 210.964L171.572 202.427L167.835 202.857C167.399 202.901 166.977 203.039 166.599 203.262C166.221 203.484 165.896 203.786 165.646 204.147C165.396 204.507 165.227 204.918 165.151 205.35C165.075 205.782 165.094 206.226 165.206 206.65V206.65Z" fill="#FFB573"/>
<path d="M195.959 153.018C199.788 154.575 202.921 167.161 202.921 167.161L192.341 175.405C192.341 175.405 184.848 163.671 186.378 158.578C187.679 154.282 191.086 151.048 195.959 153.018Z" fill="#14B8A6"/>
<g opacity="0.5">
<path opacity="0.5" d="M195.959 153.018C199.788 154.575 202.921 167.161 202.921 167.161L192.341 175.405C192.341 175.405 184.848 163.671 186.378 158.578C187.679 154.282 191.086 151.048 195.959 153.018Z" fill="black"/>
</g>
<path d="M236.822 358.788H236.684C236.493 358.777 236.308 358.717 236.147 358.612C235.986 358.508 235.856 358.363 235.768 358.193C235.701 358.096 235.66 357.983 235.651 357.866C235.641 357.748 235.663 357.63 235.713 357.524C236.18 356.608 239.121 356.242 239.45 356.205C239.489 356.199 239.529 356.206 239.563 356.224C239.598 356.242 239.626 356.271 239.643 356.306C239.663 356.337 239.674 356.374 239.674 356.411C239.674 356.449 239.663 356.485 239.643 356.516C239.02 357.35 237.829 358.715 236.822 358.788ZM239.047 356.654C237.875 356.828 236.299 357.203 236.08 357.698C236.052 357.742 236.037 357.793 236.037 357.845C236.037 357.897 236.052 357.947 236.08 357.991C236.133 358.106 236.216 358.204 236.321 358.276C236.426 358.347 236.548 358.388 236.675 358.394C237.243 358.422 238.159 357.78 239.075 356.654H239.047Z" fill="#263238"/>
<path d="M239.312 356.617C238.313 356.681 236.335 356.269 235.913 355.5C235.842 355.363 235.819 355.205 235.849 355.054C235.879 354.902 235.96 354.765 236.078 354.666C236.179 354.558 236.303 354.473 236.441 354.417C236.579 354.362 236.727 354.338 236.875 354.345C238.066 354.345 239.577 356.177 239.623 356.278C239.641 356.305 239.651 356.337 239.651 356.37C239.651 356.402 239.641 356.434 239.623 356.461C239.614 356.495 239.595 356.525 239.569 356.548C239.543 356.571 239.511 356.585 239.476 356.59L239.312 356.617ZM236.783 354.73C236.623 354.744 236.473 354.815 236.362 354.932C236.188 355.115 236.215 355.234 236.261 355.316C236.527 355.82 238.093 356.232 239.092 356.232C238.551 355.655 237.571 354.748 236.866 354.721L236.783 354.73Z" fill="#263238"/>
<path d="M127.524 367.527C126.898 367.318 126.349 366.925 125.949 366.4C125.855 366.243 125.798 366.066 125.782 365.884C125.766 365.701 125.792 365.518 125.857 365.347C125.888 365.249 125.943 365.161 126.019 365.091C126.095 365.022 126.188 364.974 126.288 364.953C127.332 364.751 129.805 367.408 130.291 367.948C130.313 367.98 130.325 368.019 130.325 368.058C130.325 368.097 130.313 368.136 130.291 368.168C130.27 368.205 130.239 368.234 130.202 368.252C130.164 368.27 130.121 368.276 130.08 368.269C129.206 368.106 128.35 367.857 127.524 367.527V367.527ZM126.746 365.383C126.627 365.324 126.494 365.299 126.361 365.31C126.361 365.31 126.26 365.31 126.224 365.447C126.177 365.566 126.158 365.694 126.17 365.821C126.181 365.949 126.221 366.071 126.288 366.18C126.645 366.794 127.863 367.371 129.595 367.747C128.77 366.819 127.81 366.022 126.746 365.383V365.383Z" fill="#263238"/>
<path d="M130.07 368.232C130.046 368.222 130.024 368.206 130.006 368.186C129.164 367.353 127.808 364.861 128.275 364.064C128.385 363.89 128.605 363.707 129.09 363.844C130.922 364.376 130.364 367.93 130.336 368.085C130.331 368.121 130.315 368.154 130.291 368.181C130.266 368.207 130.234 368.225 130.199 368.232C130.179 368.241 130.157 368.246 130.135 368.246C130.113 368.246 130.091 368.241 130.07 368.232ZM129.154 364.257H129.026C128.834 364.202 128.706 364.211 128.66 364.257C128.385 364.724 129.255 366.602 130.052 367.6C130.07 366.721 130.18 364.705 129.154 364.257Z" fill="#263238"/>
<path d="M175.457 126.234L174.074 125.318C174.074 125.318 174.486 126.747 175.457 126.234Z" fill="#263238"/>
</svg>
